<svg width="41" height="40" viewBox="0 0 41 40" fill="none" xmlns="http://www.w3.org/2000/svg">
<g clip-path="url(#clip0_1102_1046)">
<path d="M34.9062 14.0243V6.64062C34.9062 5.99344 34.3816 5.46875 33.7344 5.46875H26.3507L21.2019 0.341484C20.7445 -0.113828 20.0053 -0.113828 19.548 0.341484L14.3993 5.46875H7.01562C6.36844 5.46875 5.84375 5.99344 5.84375 6.64062V14.0243L0.716484 19.1731C0.261172 19.6304 0.261172 20.3697 0.716484 20.827L5.84375 25.9757V33.3594C5.84375 34.0066 6.36844 34.5312 7.01562 34.5312H14.3993L19.548 39.6585C19.7767 39.8862 20.0759 40 20.375 40C20.6741 40 20.9733 39.8862 21.2019 39.6585L26.3507 34.5312H33.7344C34.3816 34.5312 34.9062 34.0066 34.9062 33.3594V25.9757L40.0335 20.827C40.4888 20.3697 40.4888 19.6304 40.0335 19.1731L34.9062 14.0243ZM32.904 24.6648C32.6853 24.8845 32.5625 25.1817 32.5625 25.4916V32.1875H25.8667C25.5568 32.1875 25.2595 32.3103 25.0398 32.529L20.375 37.1743L15.7102 32.529C15.4905 32.3103 15.1933 32.1875 14.8834 32.1875H8.1875V25.4917C8.1875 25.1818 8.06469 24.8845 7.84602 24.6648L3.2007 20L7.84602 15.3352C8.06469 15.1155 8.1875 14.8183 8.1875 14.5084V7.8125H14.8833C15.1932 7.8125 15.4905 7.68969 15.7102 7.47102L20.375 2.8257L25.0398 7.47102C25.2595 7.68969 25.5568 7.8125 25.8667 7.8125H32.5625V14.5083C32.5625 14.8182 32.6853 15.1155 32.904 15.3352L37.5493 20L32.904 24.6648Z" fill="#994EF8"/>
</g>
<defs>
<clipPath id="clip0_1102_1046">
<rect width="40" height="40" fill="white" transform="translate(0.375)"/>
</clipPath>
</defs>
</svg>
