<svg width="35" height="30" viewBox="0 0 35 30" fill="none" xmlns="http://www.w3.org/2000/svg">
<g clip-path="url(#clip0_0_1108)">
<path d="M35 0H33.9746C32.3012 0 30.8122 0.760547 29.8758 1.93359H29.873C28.1974 1.93359 26.7074 2.69543 25.7715 3.87041V3.86719C22.9441 3.86719 20.6445 6.03591 20.6445 8.70117V13.3513L17.5 16.2752L14.3555 13.3513V8.70117C14.3555 6.03591 12.0559 3.86719 9.22852 3.86719V3.87041C8.29261 2.69543 6.80258 1.93359 5.12695 1.93359H5.12422C4.1879 0.760547 2.69883 0 1.02539 0H0V15.1865L7.2653 23.332H6.15234V33H28.8477V23.332H27.7347L35 15.1865V0ZM12.3047 8.70117V11.6312C11.6791 11.2753 10.9797 11.05 10.2539 10.9706V6.76758C10.2539 6.48656 10.2267 6.2107 10.178 5.94258C11.4108 6.32092 12.3047 7.41404 12.3047 8.70117ZM6.15234 4.03283C7.3459 4.43193 8.20312 5.50694 8.20312 6.76758V11.1323C7.71494 11.2671 7.25089 11.47 6.82637 11.7343L6.15234 11.0995V4.03283ZM16.4746 31.0664H8.20312V25.2656H16.4746V31.0664ZM16.4746 23.332H9.94492L2.05078 14.482V2.0993C3.24434 2.4982 4.10156 3.57328 4.10156 4.83398V11.9006L10.554 17.9844L12.0046 16.6174L8.32679 13.1497C8.73558 12.9646 9.18606 12.8674 9.6531 12.8674C10.4748 12.8674 11.2472 13.1691 11.8283 13.7169L16.4746 18.0373V23.332ZM26.7969 6.76758C26.7969 5.50694 27.6541 4.43193 28.8477 4.03283V11.0995L28.1736 11.7343C27.7491 11.47 27.2851 11.2671 26.7969 11.1323V6.76758ZM22.6953 8.70117C22.6953 7.41411 23.5893 6.32092 24.822 5.94258C24.772 6.21506 24.7466 6.49105 24.7461 6.76758V10.9706C24.0203 11.05 23.3209 11.2753 22.6953 11.6312V8.70117ZM26.7969 31.0664H18.5254V25.2656H26.7969V31.0664ZM32.9492 14.482L25.0551 23.332H18.5254V18.0373L23.1717 13.7169C23.7528 13.1691 24.5252 12.8674 25.3469 12.8674C25.8139 12.8674 26.2644 12.9646 26.6732 13.1497L22.9955 16.6173L24.4459 17.9844L30.8984 11.9007V4.83398C30.8984 3.57335 31.7557 2.49833 32.9492 2.09924V14.482Z" fill="white"/>
<path d="M22.6953 27.1992H24.7461V29.1328H22.6953V27.1992Z" fill="white"/>
<path d="M10.2539 27.1992H12.3047V29.1328H10.2539V27.1992Z" fill="white"/>
</g>
<defs>
<clipPath id="clip0_0_1108">
<rect width="35" height="33" fill="white"/>
</clipPath>
</defs>
</svg>
