<svg width="35" height="32" viewBox="0 0 35 32" fill="none" xmlns="http://www.w3.org/2000/svg">
<path d="M28.0351 0.648788L24.3234 2.29276L23.5979 0.45578L21.9511 0.653329C20.2987 0.850802 18.8597 1.51187 17.4837 2.71495C16.1075 1.50892 14.6786 0.848456 13.0489 0.653253L11.4016 0.45578L10.6766 2.29276L6.96411 0.648788L0 18.6408L4.15844 20.3967V33.4558L17.4829 26.0793L30.8074 33.4558V20.4088L35 18.6413L28.0351 0.648788ZM6.2084 29.7834V21.2631L14.9384 24.9505L6.2084 29.7834ZM16.4581 23.1626L2.72501 17.362L8.06025 3.57819L9.85441 4.37331L5.27167 15.9783L16.458 20.7417L16.4581 23.1626ZM16.4581 18.3093L8.73797 15.0221C10.0568 14.2758 11.6229 14.1792 13.0523 14.8231L16.458 16.4738L16.4581 18.3093ZM16.4581 13.9962L13.8396 12.7272C12.2174 11.9919 10.4675 11.9413 8.87954 12.5073L12.6772 2.89199C12.8881 2.95148 14.5149 2.89411 16.4581 4.71981V13.9962ZM18.5078 4.72125C20.4146 2.93877 22.2147 2.92249 22.3228 2.89207L26.1047 12.4699C24.6083 11.9419 22.9813 12.0132 21.405 12.7272L18.5078 14.0408V4.72125ZM18.5078 16.4937L22.1813 14.8282C23.5703 14.1981 25.0198 14.2806 26.2778 15.0129L18.5078 18.3116V16.4937ZM28.7574 29.7833L20.0296 24.9513L28.7574 21.2726V29.7833ZM18.5078 23.1641V20.7423L29.7283 15.9791L25.1448 4.37331L26.9392 3.57827L32.2744 17.3614L18.5078 23.1641Z" fill="white"/>
</svg>
