<svg width="35" height="33" viewBox="0 0 35 33" fill="none" xmlns="http://www.w3.org/2000/svg">
<g clip-path="url(#clip0_0_1113)">
<g clip-path="url(#clip1_0_1113)">
<path d="M25.5754 25.5815V24.5693C25.5754 22.9569 24.625 21.5073 23.0955 20.7861L20.1919 19.4174V14.3049C20.1919 12.9571 19.5274 11.723 18.4154 10.933C18.4734 10.6352 18.6666 10.3847 18.9178 10.3059C20.7535 9.72996 21.9863 8.11696 21.9863 6.29197C21.9863 3.67771 19.5089 1.69724 16.753 2.11976C14.6218 2.44618 13.0139 4.31809 13.0139 6.47306V9.33236C10.7776 11.5633 9.42505 14.586 9.42505 17.8448V22.6229C9.42505 23.8893 9.79961 25.1011 10.4987 26.1466C8.82218 26.7598 7.63062 28.2972 7.63062 30.0917V30.9377H24.678C26.1621 30.9377 27.3699 29.799 27.3699 28.3998C27.3704 27.8207 27.2037 27.2524 26.8875 26.7559C26.5714 26.2593 26.1178 25.8534 25.5754 25.5815V25.5815ZM22.4667 22.389C23.282 22.8452 23.7808 23.6647 23.7808 24.5693V24.9703L21.7483 24.3313L22.4667 22.389ZM14.8086 6.47306C14.8086 5.13872 15.7684 3.98479 17.0413 3.7896C18.7631 3.52527 20.1919 4.77457 20.1919 6.29197C20.1926 6.82491 20.0151 7.3445 19.6847 7.77692C19.3543 8.20933 18.8878 8.53257 18.3514 8.70072C17.6432 8.92281 17.0927 9.44008 16.8112 10.0972L14.8086 9.15302V6.47306ZM11.2195 17.8448C11.2195 15.1877 12.2401 12.6778 14.1058 10.7136L16.9093 12.035C17.8274 12.4674 18.3975 13.3378 18.3975 14.305V20.4629L20.8506 21.6197L20.0459 23.7967L16.603 22.7143V14.7517H14.8085V23.9338L17.5264 24.788C16.3297 26.0407 14.4352 26.5449 12.6688 25.99L12.612 25.972C11.713 25.0576 11.2195 23.8766 11.2195 22.6229V17.8448ZM24.678 29.2458H9.57877C9.93467 28.2989 10.8709 27.6092 11.9821 27.5572C12.0618 27.5762 12.9034 27.9064 14.1303 27.9064C16.1764 27.9064 18.1306 26.9747 19.3365 25.3567L24.4866 26.9752C24.8038 27.0746 25.0798 27.2658 25.2753 27.5216C25.4707 27.7773 25.5758 28.0846 25.5755 28.3998C25.5755 28.8662 25.1729 29.2458 24.678 29.2458H24.678Z" fill="white"/>
</g>
</g>
<defs>
<clipPath id="clip0_0_1113">
<rect width="35" height="33" fill="white"/>
</clipPath>
<clipPath id="clip1_0_1113">
<rect width="30.625" height="28.875" fill="white" transform="translate(2.1875 2.0625)"/>
</clipPath>
</defs>
</svg>
