<svg width="50" height="50" viewBox="0 0 50 50" fill="none" xmlns="http://www.w3.org/2000/svg">
<path d="M24.618 6.22827L24.631 6.22795C25.3273 6.21083 25.7158 7.02488 25.2689 7.55761C24.8108 8.11909 24.5617 8.81936 24.5613 9.54514C24.5613 11.291 25.9574 12.6946 27.697 12.6946C28.4198 12.6938 29.1216 12.439 29.6817 11.9793C29.974 11.7272 30.3689 11.7388 30.6469 11.9304C30.932 12.1269 31.0862 12.5029 30.9364 12.9536C30.3152 15.2594 28.2565 16.8746 25.8761 16.9423V17.8754C26.5883 18.9676 27.7361 19.8898 29.0962 20.7802C29.7827 21.2296 30.5193 21.6685 31.277 22.1163C31.3492 22.159 31.4216 22.2018 31.4942 22.2447C32.182 22.6509 32.8843 23.0657 33.5754 23.5012C36.7246 25.4857 39.6231 27.9833 39.6802 32.6151C39.7077 34.8407 39.2225 37.7895 37.0351 40.3755H37.558C38.7226 40.3755 39.6828 41.3404 39.6828 42.5068V45.1378V45.1384H39.5328C39.5342 45.5044 39.2379 45.8015 38.8728 45.8001L24.618 6.22827ZM24.618 6.22827L24.6053 6.23081C21.6725 6.81704 20.3156 9.45612 20.3156 11.5251C20.3156 14.0035 21.9908 16.0929 24.2613 16.7354M24.618 6.22827L24.2613 16.7354M10.4545 45.1381C10.4531 45.5844 10.8126 45.9483 11.2587 45.9501H11.2594L38.8723 45.9501L10.6045 45.1384M10.4545 45.1381C10.4545 45.138 10.4545 45.1379 10.4545 45.1378L10.6045 45.1384M10.4545 45.1381V45.1384H10.6045M10.4545 45.1381V42.5068C10.4545 41.3409 11.4091 40.3755 12.5741 40.3755H34.6867M10.6045 45.1384V42.5068C10.6045 41.4227 11.4929 40.5255 12.5741 40.5255H34.7384M34.6867 40.3755C34.6733 40.3861 34.6598 40.3966 34.6463 40.4071L34.7384 40.5255M34.6867 40.3755H34.7384V40.5255M34.6867 40.3755L34.7384 40.5255M24.2613 16.7354V17.8716C23.5494 18.9655 22.4065 19.8977 21.0492 20.793C20.2139 21.3439 19.3089 21.8739 18.3806 22.4176C17.7796 22.7696 17.1689 23.1274 16.5608 23.5002C13.1304 25.6039 10.4849 28.2561 10.4545 32.6159C10.4344 35.488 11.2415 37.6181 12.1514 39.095L24.2613 16.7354ZM24.9722 19.3738C25.0043 19.3333 25.036 19.2926 25.0674 19.2515C25.0988 19.2926 25.1305 19.3334 25.1626 19.3738C25.1312 19.4145 25.0994 19.4549 25.0673 19.4951C25.0353 19.455 25.0036 19.4146 24.9722 19.3738ZM13.5252 38.2451C13.5249 38.2445 13.5245 38.2439 13.5241 38.2434L13.3985 38.3253L13.5262 38.2466C13.5259 38.2461 13.5255 38.2456 13.5252 38.2451ZM22.9909 8.90557C22.9613 9.11602 22.9452 9.32946 22.9451 9.54493V9.54504C22.9451 12.1678 25.0798 14.313 27.6969 14.313H27.6971C27.9128 14.3127 28.1264 14.2962 28.337 14.2659C27.6522 14.926 26.7308 15.3249 25.726 15.3261C23.6227 15.3261 21.9304 13.6345 21.9303 11.5252C21.9314 10.5167 22.3311 9.59245 22.9909 8.90557ZM12.5741 41.9939H37.558C37.85 41.9939 38.068 42.2124 38.068 42.5068V44.3318H12.0693V42.5068C12.0693 42.2108 12.2838 41.9939 12.5741 41.9939Z" fill="white" stroke="white" stroke-width="0.3"/>
</svg>
