<svg width="35" height="33" viewBox="0 0 35 33" fill="none" xmlns="http://www.w3.org/2000/svg">
<path d="M32.4761 25.2034C32.4324 25.1879 31.3824 24.7857 29.1648 24.6878C28.1696 24.6579 27.1735 24.707 26.1871 24.8347C26.3018 24.5552 26.3397 24.2528 26.2972 23.9557C26.2546 23.6586 26.133 23.3766 25.9437 23.1357L25.7851 22.9321C25.6974 22.8266 25.5696 22.7574 25.4287 22.7393C25.2879 22.7211 25.145 22.7554 25.0305 22.8349C24.916 22.9143 24.8389 23.0327 24.8154 23.1649C24.7919 23.2971 24.8239 23.4328 24.9047 23.5431L25.0632 23.7467C25.1257 23.8264 25.1709 23.9169 25.1962 24.0131C25.2215 24.1093 25.2264 24.2092 25.2107 24.3072C25.1949 24.4051 25.1588 24.4992 25.1044 24.584C25.05 24.6687 24.9784 24.7426 24.8937 24.8012L24.3961 25.1467C24.3121 25.2063 24.2164 25.2493 24.1144 25.2732C24.0125 25.2971 23.9064 25.3014 23.8027 25.2859C23.699 25.2711 23.5994 25.237 23.5098 25.1857C23.4201 25.1344 23.3422 25.0668 23.2804 24.9868L21.3308 22.4964C21.2052 22.3359 21.1522 22.1351 21.1835 21.9379C21.2148 21.7407 21.3277 21.5632 21.4976 21.4445L21.998 21.0964C22.0816 21.036 22.1771 20.9919 22.279 20.9667C22.3809 20.9414 22.4871 20.9356 22.5914 20.9495C22.6951 20.9633 22.7948 20.9966 22.8845 21.0476C22.9743 21.0985 23.0522 21.166 23.1136 21.246L23.6058 21.875C23.692 21.9845 23.8206 22.0573 23.9636 22.0776C24.1065 22.0979 24.2522 22.064 24.3687 21.9833C24.4268 21.9433 24.4759 21.8928 24.5133 21.8348C24.5506 21.7768 24.5755 21.7124 24.5864 21.6454C24.5973 21.5783 24.5941 21.5099 24.5769 21.444C24.5598 21.3781 24.529 21.3161 24.4863 21.2614L24.2129 20.9082C24.287 20.9208 24.3619 20.9294 24.4371 20.934H24.6285C25.2127 20.934 25.7784 20.7405 26.2268 20.3875C26.6753 20.0344 26.978 19.544 27.0822 19.002C27.1863 18.46 27.0853 17.9006 26.7968 17.4216C26.5083 16.9426 26.0506 16.5744 25.5035 16.381C25.8628 16.0899 26.1268 15.7082 26.2644 15.2807C26.402 14.8532 26.4075 14.3975 26.2804 13.9672C26.1533 13.5368 25.8988 13.1495 25.5467 12.8505C25.1946 12.5516 24.7594 12.3534 24.2922 12.2792C24.4087 12.2121 24.5193 12.1362 24.623 12.0524C24.8728 11.8522 25.0777 11.6071 25.2256 11.3312C25.3735 11.0554 25.4615 10.7545 25.4843 10.4462C25.531 9.82492 25.3146 9.21152 24.8826 8.74037C24.4505 8.26922 23.838 7.97873 23.1793 7.93253C23.1082 7.93253 23.0371 7.93253 22.966 7.93253C23.1489 7.63352 23.2582 7.2996 23.2859 6.95542C23.3217 6.54371 23.2419 6.13038 23.0546 5.75696C22.8672 5.38353 22.579 5.06316 22.2188 4.82803C21.8585 4.59289 21.439 4.45128 21.0024 4.41742C20.5658 4.38356 20.1273 4.45863 19.7312 4.63511C19.7312 4.60159 19.7312 4.5655 19.7312 4.53198C19.7667 4.06996 19.6567 3.60835 19.4149 3.20509C19.1731 2.80183 18.8104 2.47489 18.3722 2.2653C17.9341 2.05572 17.4401 1.97283 16.9521 2.02705C16.4642 2.08126 16.0041 2.27016 15.6297 2.57003C15.3972 2.75759 15.2035 2.98396 15.0582 3.23777C15.0224 2.67553 14.7735 2.14413 14.3569 1.74045C13.9403 1.33677 13.3837 1.0877 12.7886 1.03863C12.4618 1.01409 12.1331 1.05091 11.8214 1.14693C11.5098 1.24296 11.2214 1.3963 10.973 1.59808C10.5646 1.92145 10.2786 2.36117 10.1582 2.85105C10.0596 2.53847 9.8932 2.24861 9.66955 1.99985C9.4459 1.7511 9.16987 1.54887 8.85896 1.406C8.54805 1.26313 8.20904 1.18273 7.86344 1.1699C7.51784 1.15707 7.17318 1.21209 6.85132 1.33147C6.52946 1.45085 6.23742 1.63199 5.99371 1.8634C5.75001 2.0948 5.55997 2.37143 5.43563 2.67573C5.3113 2.98004 5.25538 3.30538 5.27143 3.63114C5.28748 3.95689 5.37515 4.27595 5.52887 4.56808C5.14377 4.47791 4.74133 4.47627 4.35542 4.56331C3.96951 4.65035 3.61143 4.82351 3.31129 5.06823C3.01598 5.30636 2.78384 5.60632 2.63344 5.94414C2.48305 6.28196 2.41855 6.64827 2.44512 7.01379C2.4717 7.3793 2.58859 7.73389 2.78647 8.04921C2.98435 8.36452 3.25772 8.63181 3.58473 8.82972C3.18728 8.9431 2.82615 9.14826 2.5341 9.42658C2.24206 9.70491 2.02836 10.0476 1.91238 10.4235C1.7964 10.7995 1.78183 11.1967 1.86998 11.5793C1.95812 11.9619 2.1462 12.3177 2.41715 12.6144C2.63009 12.8494 2.89023 13.0424 3.18259 13.1822C3.47496 13.322 3.79377 13.4059 4.12067 13.4291H4.29567C4.01158 13.7631 3.82961 14.1639 3.76938 14.5882C3.70915 15.0126 3.77294 15.4444 3.95388 15.837C4.13482 16.2297 4.42603 16.5683 4.79611 16.8164C5.16619 17.0645 5.60108 17.2126 6.05387 17.2447H6.24801C6.82046 17.246 7.37548 17.0591 7.81754 16.7162C7.77903 16.852 7.75431 16.991 7.74371 17.1313C7.71763 17.4407 7.75685 17.7519 7.85911 18.047C7.96138 18.342 8.12466 18.615 8.33952 18.8502C8.55438 19.0854 8.81655 19.2781 9.11087 19.4172C9.4052 19.5562 9.72584 19.6389 10.0543 19.6604H10.2457C10.6829 19.6608 11.1123 19.5513 11.4898 19.3433C11.4898 19.3897 11.4761 19.4387 11.4707 19.4877C11.4209 20.1098 11.6352 20.7252 12.0664 21.1985C12.4976 21.6717 13.1104 21.9642 13.7703 22.0117H13.9617C14.458 22.013 14.9432 21.8728 15.3535 21.6095C15.3053 22.2305 15.5203 22.8442 15.9514 23.316C16.3825 23.7877 16.9945 24.0789 17.6531 24.1257H17.8445C18.3555 24.1254 18.854 23.9768 19.2723 23.7C19.6905 23.4233 20.0083 23.0318 20.1824 22.5789C20.2445 22.7631 20.3368 22.9371 20.4558 23.0945L22.4 25.5901C22.5464 25.7792 22.7314 25.9388 22.9441 26.0597C23.1568 26.1805 23.3929 26.2602 23.6386 26.2939C23.729 26.3078 23.8205 26.3147 23.9121 26.3146C24.0754 26.3143 24.2381 26.2944 24.3961 26.2553C24.4987 27.3394 24.7121 28.4117 25.0332 29.4573C25.6511 31.4682 26.3183 32.3293 26.3457 32.3654C26.4334 32.4709 26.5612 32.5401 26.7021 32.5582C26.8429 32.5763 26.9857 32.5421 27.1002 32.4626C27.2147 32.3831 27.2919 32.2648 27.3154 32.1326C27.3389 32.0004 27.3069 31.8647 27.2261 31.7544C27.2261 31.7544 26.641 30.981 26.0832 29.1763C26.0203 28.9752 25.9656 28.7767 25.9136 28.5807C26.0558 28.8385 26.2117 29.0964 26.3785 29.3542C27.5324 31.1589 28.4129 31.8163 28.4511 31.8421C28.564 31.9259 28.7072 31.9644 28.85 31.9495C28.9927 31.9345 29.1235 31.8672 29.214 31.7621C29.3049 31.6558 29.3473 31.5197 29.3319 31.3839C29.3166 31.2481 29.2447 31.1236 29.132 31.0377C29.132 31.0377 28.3773 30.4499 27.3656 28.8978C28.7984 30.4989 29.7773 31.03 29.8265 31.0532C29.9523 31.1215 30.1018 31.14 30.2421 31.1044C30.3823 31.0689 30.5019 30.9823 30.5744 30.8637C30.6469 30.745 30.6665 30.6041 30.6288 30.4719C30.5911 30.3396 30.4992 30.2269 30.3734 30.1585C30.3734 30.1585 29.5011 29.6713 28.2132 28.2327C27.9781 27.9749 27.7621 27.7171 27.5652 27.4592C27.9179 27.5907 28.2898 27.7428 28.6589 27.9182C30.45 28.7535 31.1527 29.4264 31.1582 29.4315C31.2093 29.4821 31.2708 29.5224 31.339 29.5498C31.4072 29.5773 31.4805 29.5914 31.5547 29.5914C31.6612 29.591 31.7653 29.5613 31.8542 29.5059C31.9431 29.4505 32.0129 29.3718 32.0551 29.2795C32.0972 29.1872 32.1098 29.0853 32.0913 28.9864C32.0729 28.8874 32.0241 28.7957 31.9511 28.7225C31.9183 28.689 31.1308 27.9207 29.1429 26.9952C30.9859 27.5469 31.7625 28.0909 31.7679 28.096C31.8637 28.165 31.981 28.2021 32.1015 28.2017C32.2154 28.2014 32.3263 28.1676 32.4188 28.105C32.5113 28.0423 32.5807 27.9541 32.6175 27.8524C32.6542 27.7508 32.6564 27.6409 32.6237 27.5381C32.591 27.4353 32.5251 27.3446 32.4351 27.2788C32.3996 27.253 31.4972 26.6085 29.3781 25.9897C29.0718 25.8995 28.7683 25.8196 28.4785 25.75H29.1238C31.1199 25.8247 32.0523 26.1728 32.0605 26.1753C32.1266 26.2005 32.1971 26.2136 32.2683 26.214C32.4065 26.2314 32.5466 26.1983 32.6598 26.1215C32.773 26.0447 32.8508 25.9301 32.8773 25.801C32.9039 25.672 32.8771 25.5382 32.8026 25.4271C32.728 25.316 32.6112 25.236 32.4761 25.2034V25.2034ZM25.6867 17.7268C25.8076 17.858 25.8997 18.0107 25.9574 18.1758C26.0151 18.3409 26.0374 18.5152 26.023 18.6885C26.0109 18.8629 25.9622 19.0333 25.8797 19.1898C25.7971 19.3464 25.6825 19.4859 25.5423 19.6003C25.4022 19.7147 25.2393 19.8017 25.0632 19.8563C24.8871 19.9109 24.7012 19.9319 24.5164 19.9182C24.1516 19.8972 23.8099 19.7425 23.5645 19.4871C23.3191 19.2318 23.1893 18.8961 23.2028 18.5517C23.2164 18.2073 23.3723 17.8816 23.6371 17.6442C23.902 17.4067 24.2548 17.2763 24.6203 17.2808H24.7269C24.9103 17.2932 25.0892 17.3397 25.2535 17.4176C25.4177 17.4955 25.564 17.6032 25.6839 17.7346L25.6867 17.7268ZM24.9402 13.7462C25.0908 13.9106 25.1962 14.1075 25.2469 14.3195C25.2977 14.5314 25.2923 14.7519 25.2312 14.9614C25.1701 15.1709 25.0552 15.3629 24.8967 15.5206C24.7382 15.6783 24.5409 15.7968 24.3222 15.8655C24.1036 15.9342 23.8704 15.951 23.6432 15.9146C23.4161 15.8781 23.2019 15.7894 23.0197 15.6564C22.8375 15.5234 22.6929 15.35 22.5987 15.1518C22.5044 14.9535 22.4634 14.7364 22.4793 14.5196C22.5061 14.1879 22.6645 13.8779 22.923 13.6514C23.1814 13.4249 23.5209 13.2986 23.8738 13.2976H23.9832C24.3521 13.3236 24.6956 13.4846 24.9402 13.7462ZM22.9961 8.95605H23.1027C23.3299 8.97538 23.5486 9.04676 23.7398 9.16396C23.931 9.28116 24.089 9.44063 24.2 9.62852C24.3109 9.8164 24.3715 10.027 24.3765 10.242C24.3814 10.457 24.3306 10.6699 24.2284 10.8621C24.1262 11.0544 23.9758 11.2202 23.7901 11.3451C23.6045 11.47 23.3893 11.5503 23.1632 11.5789C22.9372 11.6076 22.7071 11.5837 22.4931 11.5094C22.279 11.4351 22.0875 11.3126 21.9351 11.1526C21.8145 11.0213 21.7229 10.8686 21.6656 10.7035C21.6084 10.5383 21.5866 10.3641 21.6015 10.191C21.6251 9.85694 21.7821 9.54375 22.0409 9.31457C22.2997 9.08539 22.641 8.95727 22.9961 8.95605ZM19.898 5.76948C20.1507 5.56284 20.4741 5.4493 20.8086 5.4498H20.9152C21.2856 5.47666 21.6297 5.64073 21.8722 5.90612C22.0532 6.10373 22.168 6.34751 22.202 6.60662C22.2361 6.86574 22.1878 7.12855 22.0634 7.36181C21.939 7.59508 21.7441 7.78832 21.5032 7.91711C21.2623 8.04589 20.9863 8.10443 20.7101 8.08531C20.434 8.0662 20.17 7.97029 19.9516 7.80972C19.7333 7.64915 19.5703 7.43114 19.4834 7.18324C19.3965 6.93535 19.3895 6.66872 19.4633 6.41707C19.5371 6.16542 19.6884 5.94006 19.898 5.76948ZM16.3707 3.35636C16.5803 3.18875 16.8377 3.08306 17.1107 3.05245C17.3837 3.02185 17.6601 3.06769 17.9057 3.18426C18.1512 3.30083 18.3549 3.48297 18.4913 3.70796C18.6278 3.93296 18.691 4.19085 18.673 4.44948C18.6447 4.79889 18.4704 5.12338 18.1884 5.35159C17.9063 5.5798 17.5397 5.69303 17.1691 5.66636C16.7985 5.63969 16.4544 5.47532 16.2123 5.2094C15.9703 4.94348 15.8502 4.59779 15.8785 4.24839C15.8927 4.07693 15.9427 3.90983 16.0258 3.75672C16.1089 3.60361 16.2233 3.46754 16.3625 3.35636H16.3707ZM11.6757 2.38698C11.9284 2.18034 12.2518 2.0668 12.5863 2.0673H12.6957C12.8795 2.0805 13.0588 2.12772 13.2233 2.20625C13.3878 2.28479 13.5343 2.3931 13.6544 2.52501C13.7745 2.65692 13.8658 2.80985 13.9233 2.97505C13.9807 3.14025 14.003 3.3145 13.989 3.48784C13.975 3.66119 13.9249 3.83024 13.8416 3.98533C13.7584 4.14043 13.6435 4.27854 13.5036 4.39178C13.3637 4.50501 13.2015 4.59116 13.0263 4.6453C12.851 4.69943 12.6662 4.7205 12.4824 4.7073C12.2045 4.69045 11.9382 4.59584 11.7176 4.43554C11.497 4.27524 11.3321 4.05655 11.244 3.80744C11.1559 3.55832 11.1487 3.29009 11.2232 3.03706C11.2976 2.78403 11.4504 2.55769 11.6621 2.38698H11.6757ZM6.85504 2.52878C7.10772 2.32214 7.43111 2.2086 7.76559 2.20909H7.86676C8.14433 2.22739 8.40986 2.32311 8.62958 2.48408C8.84929 2.64505 9.01327 2.86399 9.10067 3.11306C9.18806 3.36213 9.19491 3.63009 9.12035 3.88284C9.04579 4.13559 8.89319 4.36173 8.68196 4.5325C8.47073 4.70326 8.2104 4.81093 7.93409 4.84183C7.65777 4.87272 7.37796 4.82543 7.13023 4.70598C6.88249 4.58653 6.67804 4.40031 6.54285 4.17101C6.40767 3.9417 6.34787 3.67967 6.37106 3.41823C6.3856 3.24722 6.43584 3.08061 6.5189 2.92796C6.60196 2.77532 6.71619 2.63966 6.85504 2.52878V2.52878ZM3.53824 6.75175C3.56507 6.42002 3.7235 6.11001 3.98196 5.88352C4.24043 5.65703 4.57992 5.5307 4.93278 5.52972H5.04215C5.41208 5.55674 5.75558 5.72085 5.99747 5.98612C6.23936 6.25139 6.35992 6.59621 6.33278 6.94511C6.31985 7.11831 6.27039 7.28735 6.18728 7.44229C6.10417 7.59724 5.9891 7.73498 5.84879 7.84745C5.63884 8.01829 5.37981 8.12649 5.10455 8.15832C4.82929 8.19016 4.5502 8.1442 4.30268 8.02627C4.05516 7.90834 3.85037 7.72375 3.71427 7.49593C3.57817 7.2681 3.51691 7.0073 3.53824 6.74659V6.75175ZM4.2027 12.4004C3.84389 12.3706 3.51098 12.2119 3.27294 11.957C3.0349 11.7021 2.90997 11.3707 2.92403 11.0313C2.93809 10.692 3.09006 10.3707 3.34846 10.1341C3.60687 9.89752 3.9519 9.76372 4.31207 9.76042H4.41871C4.78929 9.78675 5.1336 9.95079 5.3759 10.2165C5.61819 10.4821 5.73863 10.8277 5.71071 11.1771C5.68279 11.5265 5.5088 11.8511 5.22702 12.0796C4.94524 12.308 4.57874 12.4216 4.20817 12.3953L4.2027 12.4004ZM7.15582 15.9067C6.98478 16.0455 6.78066 16.1433 6.56087 16.1917C6.34108 16.2402 6.11213 16.2377 5.89354 16.1847C5.67495 16.1317 5.4732 16.0296 5.30548 15.8872C5.13776 15.7448 5.00905 15.5663 4.93031 15.3668C4.85157 15.1674 4.82515 14.9529 4.85329 14.7418C4.88142 14.5306 4.96329 14.329 5.09191 14.1542C5.22053 13.9793 5.39209 13.8363 5.59196 13.7375C5.79184 13.6386 6.0141 13.5867 6.23981 13.5864H6.34918C6.6253 13.6067 6.88885 13.7036 7.10662 13.865C7.32439 14.0263 7.48663 14.2448 7.5729 14.493C7.65916 14.7411 7.66559 15.0078 7.59137 15.2594C7.51714 15.5109 7.3656 15.7362 7.15582 15.9067V15.9067ZM11.148 18.3198C10.9769 18.4587 10.7726 18.5566 10.5527 18.6049C10.3328 18.6533 10.1037 18.6508 9.88507 18.5977C9.66639 18.5445 9.4646 18.4423 9.2969 18.2997C9.12921 18.1571 9.00059 17.9784 8.92202 17.7787C8.84345 17.5791 8.81726 17.3645 8.84568 17.1533C8.87411 16.9421 8.95631 16.7405 9.08527 16.5657C9.21422 16.3909 9.38611 16.2481 9.58627 16.1495C9.78642 16.0509 10.0089 15.9995 10.2347 15.9995H10.3277C10.5113 16.0125 10.6903 16.0596 10.8545 16.1379C11.0188 16.2163 11.165 16.3244 11.2849 16.4561C11.4048 16.5878 11.4959 16.7405 11.5531 16.9055C11.6104 17.0704 11.6325 17.2444 11.6183 17.4175C11.6071 17.5897 11.5598 17.7582 11.4791 17.9131C11.3983 18.068 11.2858 18.2062 11.148 18.3198V18.3198ZM14.8613 20.6917C14.6902 20.832 14.4856 20.9312 14.265 20.9806C14.0444 21.0301 13.8143 21.0284 13.5946 20.9757C13.3748 20.9229 13.1719 20.8207 13.0031 20.6779C12.8344 20.535 12.705 20.3557 12.6259 20.1553C12.5468 19.9549 12.5204 19.7394 12.5489 19.5273C12.5775 19.3152 12.6602 19.1128 12.7899 18.9374C12.9196 18.762 13.0925 18.6189 13.2937 18.5203C13.4949 18.4218 13.7185 18.3706 13.9453 18.3714H14.0547C14.3308 18.3917 14.5943 18.4886 14.8121 18.65C15.0299 18.8113 15.1921 19.0298 15.2784 19.278C15.3646 19.5261 15.3711 19.7928 15.2968 20.0444C15.2226 20.2959 15.0711 20.5212 14.8613 20.6917ZM18.7414 22.8083C18.6022 22.9217 18.4407 23.0081 18.266 23.0624C18.0913 23.1168 17.907 23.1382 17.7236 23.1252C17.5402 23.1123 17.3613 23.0653 17.1971 22.9871C17.033 22.9088 16.8869 22.8007 16.7672 22.6691C16.5915 22.4777 16.4779 22.2426 16.4399 21.992C16.402 21.7414 16.4413 21.4858 16.5531 21.2557C16.6649 21.0255 16.8445 20.8306 17.0706 20.694C17.2967 20.5574 17.5596 20.485 17.8281 20.4854H17.9347C18.2127 20.5023 18.479 20.5969 18.6996 20.7572C18.9201 20.9175 19.085 21.1362 19.1731 21.3853C19.2612 21.6344 19.2684 21.9026 19.194 22.1557C19.1195 22.4087 18.9667 22.635 18.755 22.8057L18.7414 22.8083ZM20.2617 21.2949C20.175 20.9131 19.9868 20.5582 19.7148 20.2637C19.3168 19.8276 18.763 19.5443 18.1583 19.4673C17.5536 19.3904 16.94 19.5251 16.4336 19.846C16.4656 19.4201 16.3742 18.9939 16.169 18.6132C15.9639 18.2325 15.6527 17.9116 15.269 17.6849C14.8852 17.4581 14.4432 17.3341 13.9904 17.326C13.5376 17.318 13.091 17.4262 12.6984 17.6392C12.7067 17.5922 12.7122 17.5449 12.7148 17.4974C12.7523 17.0393 12.6466 16.581 12.4106 16.1791C12.1746 15.7772 11.8188 15.4493 11.3873 15.2361C10.9557 15.0229 10.4673 14.9337 9.98246 14.9796C9.49766 15.0255 9.03777 15.2044 8.65973 15.4942C8.69602 15.3589 8.71981 15.2208 8.73082 15.0817C8.78057 14.4595 8.5663 13.8442 8.1351 13.3709C7.7039 12.8976 7.09104 12.6051 6.43121 12.5577C6.37288 12.5577 6.31546 12.5577 6.25895 12.5577C6.47648 12.3001 6.63427 12.0023 6.72212 11.6837C6.80998 11.365 6.82595 11.0325 6.769 10.7076C6.71205 10.3828 6.58344 10.0728 6.39149 9.79772C6.19954 9.52266 5.94852 9.28862 5.65465 9.11073C5.98915 9.01814 6.29871 8.85902 6.56246 8.64409C6.98348 8.30395 7.27227 7.84123 7.3832 7.32904C7.49412 6.81686 7.42085 6.28442 7.17496 5.81589C7.30816 5.84484 7.44341 5.86465 7.57965 5.87519H7.77106C8.33468 5.87328 8.88112 5.692 9.32182 5.3607C9.76252 5.02941 10.0717 4.56752 10.1992 4.04987C10.2978 4.36639 10.4676 4.65919 10.6968 4.90839C10.9074 5.14721 11.1667 5.34375 11.4593 5.48635C11.7519 5.62895 12.0719 5.71471 12.4004 5.73855H12.5918C13.0409 5.73626 13.4811 5.61988 13.8661 5.40166C14.251 5.18344 14.5665 4.87143 14.7793 4.49847C14.8152 5.0666 15.0682 5.60321 15.4915 6.00895C15.9148 6.4147 16.4797 6.66209 17.0816 6.70534H17.273C17.6341 6.70636 17.991 6.6315 18.3175 6.4862V6.58675C18.2678 7.20891 18.4821 7.82424 18.9133 8.29752C19.3445 8.7708 19.9573 9.0633 20.6172 9.11073H20.8086H20.825C20.6262 9.4399 20.5147 9.80941 20.4998 10.1879C20.4849 10.5664 20.5671 10.9427 20.7394 11.2848C20.9117 11.627 21.1691 11.9248 21.4896 12.1532C21.8101 12.3815 22.1843 12.5335 22.5804 12.5964C22.4639 12.6635 22.3532 12.7394 22.2496 12.8232C21.9208 13.0894 21.6712 13.4317 21.5254 13.8165C21.3797 14.2013 21.3428 14.6153 21.4184 15.0176C21.494 15.4199 21.6796 15.7967 21.9567 16.1109C22.2338 16.425 22.593 16.6656 22.9988 16.809C22.5371 17.185 22.2378 17.7077 22.1576 18.278C22.0775 18.8482 22.2221 19.4264 22.564 19.9028C22.1289 19.8834 21.7 20.0063 21.35 20.2508L20.8523 20.5963C20.5982 20.7752 20.3953 21.0109 20.2617 21.2821V21.2949Z" fill="white"/>
</svg>
